<svg width="336" height="336" viewBox="0 0 336 336" fill="none" xmlns="http://www.w3.org/2000/svg">
<path d="M168 0C134.773 0 102.292 9.85303 74.6643 28.3131C47.0368 46.7732 25.5038 73.0112 12.7883 103.709C0.0727916 134.407 -3.25417 168.186 3.22815 200.775C9.71046 233.364 25.7109 263.299 49.2061 286.794C72.7013 310.289 102.636 326.29 135.225 332.772C167.814 339.254 201.593 335.927 232.291 323.212C262.989 310.496 289.227 288.963 307.687 261.336C326.147 233.708 336 201.227 336 168C335.949 123.459 318.233 80.7573 286.738 49.2622C255.243 17.7671 212.541 0.0508167 168 0V0ZM24.0001 168C24.0125 147.786 28.2949 127.802 36.5667 109.358C44.8386 90.9142 56.9133 74.4255 72.0001 60.972V84C72.0001 90.3652 74.5286 96.4697 79.0295 100.971C83.5304 105.471 89.6349 108 96.0001 108H136.584C141.044 108.002 145.416 106.761 149.21 104.417C153.005 102.073 156.07 98.7176 158.064 94.728L163.404 84H192V132H134.82C131.101 131.998 127.433 132.861 124.104 134.52L85.26 153.96C81.2782 155.952 77.9291 159.013 75.5874 162.8C73.2456 166.588 72.0035 170.951 72.0001 175.404V219.864C71.9997 224.66 73.4366 229.347 76.1252 233.319C78.8138 237.291 82.6309 240.366 87.0841 242.148L133.272 260.628L141.408 309.42C108.44 303.192 78.676 285.661 57.2446 259.847C35.8133 234.032 24.0566 201.551 24.0001 168V168ZM166.152 311.904L154.728 243.36L96.0001 219.876V175.416L134.832 156H216V60H148.584L136.584 84H96.0001V43.476C114.269 32.8412 134.663 26.3742 155.722 24.5374C176.781 22.7006 197.986 25.5393 217.821 32.8505C237.655 40.1618 255.629 51.7651 270.458 66.8307C285.287 81.8963 296.604 100.052 303.6 120H240V168L251.064 213.756L228 248.376V298.74C209.198 307.459 188.725 311.983 168 312C167.376 312 166.776 311.916 166.152 311.904ZM252 284.724V255.636L271.032 227.076C272.887 224.293 274.141 221.153 274.714 217.857C275.286 214.561 275.164 211.182 274.356 207.936L264 166.524V144H309.84C314.531 170.527 311.585 197.841 301.344 222.757C291.103 247.672 273.99 269.164 252 284.724V284.724Z" fill="url(#paint0_linear_6_23)"/>
<g filter="url(#filter0_b_6_23)">
<circle cx="168" cy="167" r="147" fill="url(#paint1_radial_6_23)" fill-opacity="0.5"/>
</g>
<path d="M160.21 245V135.909H185.92V245H160.21ZM173.136 120.426C169.064 120.426 165.561 119.077 162.625 116.378C159.689 113.632 158.222 110.341 158.222 106.506C158.222 102.623 159.689 99.3324 162.625 96.6335C165.561 93.8873 169.064 92.5142 173.136 92.5142C177.256 92.5142 180.759 93.8873 183.648 96.6335C186.583 99.3324 188.051 102.623 188.051 106.506C188.051 110.341 186.583 113.632 183.648 116.378C180.759 119.077 177.256 120.426 173.136 120.426Z" fill="url(#paint2_linear_6_23)"/>
<defs>
<filter id="filter0_b_6_23" x="-19" y="-20" width="374" height="374" filterUnits="userSpaceOnUse" color-interpolation-filters="sRGB">
<feFlood flood-opacity="0" result="BackgroundImageFix"/>
<feGaussianBlur in="BackgroundImageFix" stdDeviation="20"/>
<feComposite in2="SourceAlpha" operator="in" result="effect1_backgroundBlur_6_23"/>
<feBlend mode="normal" in="SourceGraphic" in2="effect1_backgroundBlur_6_23" result="shape"/>
</filter>
<linearGradient id="paint0_linear_6_23" x1="271" y1="43.5" x2="48" y2="289" gradientUnits="userSpaceOnUse">
<stop stop-color="#00FFFF"/>
<stop offset="1" stop-color="#FF00D6"/>
</linearGradient>
<radialGradient id="paint1_radial_6_23" cx="0" cy="0" r="1" gradientUnits="userSpaceOnUse" gradientTransform="translate(168 167) rotate(90) scale(147)">
<stop stop-color="#000588"/>
<stop offset="1" stop-color="#FF00D6" stop-opacity="0.55"/>
</radialGradient>
<linearGradient id="paint2_linear_6_23" x1="115.5" y1="219.5" x2="216" y2="78" gradientUnits="userSpaceOnUse">
<stop stop-color="#FF00D6"/>
<stop offset="1" stop-color="#03D2FF"/>
</linearGradient>
</defs>
</svg>
