<svg width="87" height="89" viewBox="0 0 87 89" fill="none" xmlns="http://www.w3.org/2000/svg">
<g filter="url(#filter0_dd_154_33)">
<circle cx="43" cy="43" r="35" fill="url(#paint0_radial_154_33)"/>
<circle cx="43" cy="43" r="33.5" stroke="#F492E5" stroke-width="3"/>
</g>
<path d="M24.4975 61.4025C25.0113 61.8 26.4925 59.2388 32.0725 58.8975C38.0463 58.53 44.6575 63.2813 53.7138 63.2813C61.7425 63.2813 65.9013 59.3513 65.6163 58.725C65.425 58.3088 62.2563 57.5438 58.6113 55.65C54.2275 53.3738 49.6113 51.0938 46.0825 45.9675C43.8213 42.6863 42.2088 38.9063 44.4325 35.9438C46.6525 32.9813 52.2925 34.35 52.2925 34.35L44.605 26.0363L29.9688 30.0263L22.5625 48.5925L23.3613 58.0463L24.4975 61.4025V61.4025Z" fill="white"/>
<path d="M41.2225 31.5413C41.2225 31.5413 43.0112 32.1113 45.4075 33.36C49.3937 35.4413 51.8087 38.715 54.2725 38.9175C56.83 39.1238 58.1387 37.65 57.58 34.575C57.0587 31.7063 52.825 28.3388 52.825 28.3388C52.825 28.3388 56.6912 29.0663 56.6912 26.85C56.6912 24.5738 54.6062 23.4788 51.325 22.35C49.1387 21.6 43.2587 19.935 35.3762 22.92C31.9862 24.2025 27.8462 26.5725 24.7037 31.1138C20.5937 37.0538 19.7612 44.7788 20.5412 50.6438C21.4862 57.7275 24.4337 61.38 24.505 61.41C24.5762 61.44 24.9625 53.0813 28.2587 49.455C31.0675 46.365 33.94 47.6325 37.3525 47.4638C41.3762 47.265 43.1725 43.11 40.1012 39.9413C37.465 37.2188 33.0962 37.4625 33.0962 37.4625C33.0962 37.4625 34.5437 36.885 37.2925 36.6375C40.45 36.3488 41.0725 34.515 41.2975 33.8288C41.7962 32.3138 41.2225 31.5413 41.2225 31.5413V31.5413Z" fill="#A11BA4"/>
<path d="M33.3063 31.6125C33.0963 30.375 36.7413 29.2575 40.5588 29.8575C46.4988 30.7912 51.2013 36.21 53.1963 37.0012C56.1363 38.1712 57.1713 35.7675 55.6975 33.165C54.1788 30.4762 50.1587 28.1887 50.3087 27.3C50.5787 25.7212 54.6963 28.125 54.9475 26.37C55.1163 25.2075 52.0412 23.535 49.12 22.7887C46.7687 22.1887 41.83 21.45 35.005 24.4237C26.1325 28.2975 22.2963 36.0037 21.6625 44.0775C21.0625 51.735 23.9875 57.4425 23.9875 57.4425C23.9875 57.4425 24.1862 51.7275 27.0512 48.5812C29.1437 46.2862 31.8287 45.4237 34.7425 45.9787C39.6025 46.9087 41.7213 43.395 39.385 40.8562C37.855 39.195 35.8937 38.6775 33.865 38.61C30.3587 38.4975 28.4725 39.6712 28.3712 39.2737C28.2212 38.67 30.1225 37.2712 32.5338 36.2662C35.7063 34.9462 39.535 35.85 40.135 33.195C40.4275 31.9012 39.6963 31.1925 37.6038 31.0387C34.96 30.8475 33.3213 31.7025 33.3063 31.6125V31.6125Z" fill="white"/>
<defs>
<filter id="filter0_dd_154_33" x="0" y="0" width="87" height="89" filterUnits="userSpaceOnUse" color-interpolation-filters="sRGB">
<feFlood flood-opacity="0" result="BackgroundImageFix"/>
<feColorMatrix in="SourceAlpha" type="matrix" values="0 0 0 0 0 0 0 0 0 0 0 0 0 0 0 0 0 0 127 0" result="hardAlpha"/>
<feOffset dx="3" dy="5"/>
<feGaussianBlur stdDeviation="3"/>
<feComposite in2="hardAlpha" operator="out"/>
<feColorMatrix type="matrix" values="0 0 0 0 0.354167 0 0 0 0 0.00206602 0 0 0 0 0.340083 0 0 0 1 0"/>
<feBlend mode="normal" in2="BackgroundImageFix" result="effect1_dropShadow_154_33"/>
<feColorMatrix in="SourceAlpha" type="matrix" values="0 0 0 0 0 0 0 0 0 0 0 0 0 0 0 0 0 0 127 0" result="hardAlpha"/>
<feOffset dx="-2" dy="-2"/>
<feGaussianBlur stdDeviation="3"/>
<feComposite in2="hardAlpha" operator="out"/>
<feColorMatrix type="matrix" values="0 0 0 0 0.98 0 0 0 0 0 0 0 0 0 1 0 0 0 1 0"/>
<feBlend mode="normal" in2="effect1_dropShadow_154_33" result="effect2_dropShadow_154_33"/>
<feBlend mode="normal" in="SourceGraphic" in2="effect2_dropShadow_154_33" result="shape"/>
</filter>
<radialGradient id="paint0_radial_154_33" cx="0" cy="0" r="1" gradientUnits="userSpaceOnUse" gradientTransform="translate(43 43) rotate(114.52) scale(31.3249)">
<stop stop-color="#83036E"/>
<stop offset="1" stop-color="#FF00D6"/>
</radialGradient>
</defs>
</svg>
