<svg width="469" height="178" viewBox="0 0 469 178" fill="none" xmlns="http://www.w3.org/2000/svg">
<g filter="url(#filter0_b_569_14)">
<mask id="path-1-inside-1_569_14" fill="white">
<path fill-rule="evenodd" clip-rule="evenodd" d="M240.703 1.85574C236.824 -0.203867 232.176 -0.203865 228.297 1.85574L176.139 29.5516C171.817 31.8465 169.115 36.3399 169.115 41.2332V90H95.9546C86.0541 77.7981 70.9377 70 54 70C24.1766 70 0 94.1766 0 124C0 153.823 24.1766 178 54 178C72.2878 178 88.4523 168.909 98.221 155H379.767C388.925 166.574 403.095 174 419 174C446.614 174 469 151.614 469 124C469 96.3857 446.614 74 419 74C404.516 74 391.47 80.1586 382.339 90H299.885V41.2332C299.885 36.3399 297.183 31.8465 292.861 29.5516L240.703 1.85574Z"/>
</mask>
<path fill-rule="evenodd" clip-rule="evenodd" d="M240.703 1.85574C236.824 -0.203867 232.176 -0.203865 228.297 1.85574L176.139 29.5516C171.817 31.8465 169.115 36.3399 169.115 41.2332V90H95.9546C86.0541 77.7981 70.9377 70 54 70C24.1766 70 0 94.1766 0 124C0 153.823 24.1766 178 54 178C72.2878 178 88.4523 168.909 98.221 155H379.767C388.925 166.574 403.095 174 419 174C446.614 174 469 151.614 469 124C469 96.3857 446.614 74 419 74C404.516 74 391.47 80.1586 382.339 90H299.885V41.2332C299.885 36.3399 297.183 31.8465 292.861 29.5516L240.703 1.85574Z" fill="#B1B1B1" fill-opacity="0.03"/>
<path d="M228.297 1.85574L227.359 0.0893201L227.359 0.0893211L228.297 1.85574ZM240.703 1.85574L239.765 3.62216L239.765 3.62216L240.703 1.85574ZM176.139 29.5516L177.076 31.3181L177.076 31.3181L176.139 29.5516ZM169.115 90V92H171.115V90H169.115ZM95.9546 90L94.4016 91.2601L95.0019 92H95.9546V90ZM98.221 155V153H97.1816L96.5843 153.851L98.221 155ZM379.767 155L381.336 153.759L380.735 153H379.767V155ZM382.339 90V92H383.212L383.805 91.3603L382.339 90ZM299.885 90H297.885V92H299.885V90ZM292.861 29.5516L293.799 27.7852L293.799 27.7852L292.861 29.5516ZM229.235 3.62216C232.527 1.87399 236.473 1.87399 239.765 3.62216L241.641 0.0893188C237.175 -2.28173 231.825 -2.28172 227.359 0.0893201L229.235 3.62216ZM177.076 31.3181L229.235 3.62216L227.359 0.0893211L175.201 27.7852L177.076 31.3181ZM171.115 41.2332C171.115 37.0799 173.408 33.2659 177.076 31.3181L175.201 27.7852C170.225 30.4271 167.115 35.6 167.115 41.2332H171.115ZM171.115 90V41.2332H167.115V90H171.115ZM169.115 88H95.9546V92H169.115V88ZM97.5077 88.7398C87.2437 76.09 71.5659 68 54 68V72C70.3096 72 84.8645 79.5062 94.4016 91.2601L97.5077 88.7398ZM54 68C23.0721 68 -2 93.072 -2 124H2C2 95.2812 25.2812 72 54 72V68ZM-2 124C-2 154.928 23.0721 180 54 180V176C25.2812 176 2 152.719 2 124H-2ZM54 180C72.9668 180 89.7306 170.569 99.8576 156.149L96.5843 153.851C87.174 167.249 71.6088 176 54 176V180ZM98.221 157H379.767V153H98.221V157ZM378.199 156.241C387.72 168.274 402.458 176 419 176V172C403.732 172 390.13 164.874 381.336 153.759L378.199 156.241ZM419 176C447.719 176 471 152.719 471 124H467C467 150.51 445.51 172 419 172V176ZM471 124C471 95.2812 447.719 72 419 72V76C445.51 76 467 97.4903 467 124H471ZM419 72C403.937 72 390.367 78.4074 380.873 88.6397L383.805 91.3603C392.574 81.9097 405.095 76 419 76V72ZM382.339 88H299.885V92H382.339V88ZM297.885 41.2332V90H301.885V41.2332H297.885ZM291.924 31.3181C295.592 33.2659 297.885 37.0799 297.885 41.2332H301.885C301.885 35.6 298.775 30.4271 293.799 27.7852L291.924 31.3181ZM239.765 3.62216L291.924 31.3181L293.799 27.7852L241.641 0.0893182L239.765 3.62216Z" fill="white" fill-opacity="0.7" mask="url(#path-1-inside-1_569_14)"/>
</g>
<defs>
<filter id="filter0_b_569_14" x="-21" y="-20.689" width="511" height="219.689" filterUnits="userSpaceOnUse" color-interpolation-filters="sRGB">
<feFlood flood-opacity="0" result="BackgroundImageFix"/>
<feGaussianBlur in="BackgroundImageFix" stdDeviation="10.5"/>
<feComposite in2="SourceAlpha" operator="in" result="effect1_backgroundBlur_569_14"/>
<feBlend mode="normal" in="SourceGraphic" in2="effect1_backgroundBlur_569_14" result="shape"/>
</filter>
</defs>
</svg>
