<svg width="87" height="89" viewBox="0 0 87 89" fill="none" xmlns="http://www.w3.org/2000/svg">
<g filter="url(#filter0_dd_154_32)">
<circle cx="43" cy="43" r="35" fill="url(#paint0_radial_154_32)"/>
<circle cx="43" cy="43" r="33.5" stroke="#8FDDFF" stroke-width="3"/>
</g>
<path d="M63.5025 59.4025C62.9887 59.8 61.5075 57.2388 55.9275 56.8975C49.9537 56.53 43.3425 61.2813 34.2862 61.2813C26.2575 61.2813 22.0987 57.3513 22.3837 56.725C22.575 56.3088 25.7437 55.5438 29.3887 53.65C33.7725 51.3738 38.3887 49.0938 41.9175 43.9675C44.1787 40.6863 45.7912 36.9063 43.5675 33.9438C41.3475 30.9813 35.7075 32.35 35.7075 32.35L43.395 24.0363L58.0312 28.0263L65.4375 46.5925L64.6387 56.0463L63.5025 59.4025V59.4025Z" fill="white"/>
<path d="M46.7775 29.5413C46.7775 29.5413 44.9887 30.1113 42.5925 31.36C38.6062 33.4413 36.1912 36.715 33.7275 36.9175C31.17 37.1238 29.8612 35.65 30.42 32.575C30.9412 29.7063 35.175 26.3388 35.175 26.3388C35.175 26.3388 31.3087 27.0663 31.3087 24.85C31.3087 22.5738 33.3937 21.4788 36.675 20.35C38.8612 19.6 44.7412 17.935 52.6237 20.92C56.0137 22.2025 60.1537 24.5725 63.2962 29.1138C67.4062 35.0538 68.2387 42.7788 67.4587 48.6438C66.5137 55.7275 63.5662 59.38 63.495 59.41C63.4237 59.44 63.0375 51.0813 59.7412 47.455C56.9325 44.365 54.06 45.6325 50.6475 45.4638C46.6237 45.265 44.8275 41.11 47.8987 37.9413C50.535 35.2188 54.9037 35.4625 54.9037 35.4625C54.9037 35.4625 53.4562 34.885 50.7075 34.6375C47.55 34.3488 46.9275 32.515 46.7025 31.8288C46.2037 30.3138 46.7775 29.5413 46.7775 29.5413V29.5413Z" fill="#1B6DA4"/>
<path d="M54.6938 29.6125C54.9038 28.375 51.2588 27.2575 47.4413 27.8575C41.5013 28.7912 36.7988 34.21 34.8038 35.0012C31.8638 36.1712 30.8288 33.7675 32.3025 31.165C33.8213 28.4762 37.8413 26.1887 37.6913 25.3C37.4213 23.7212 33.3038 26.125 33.0525 24.37C32.8838 23.2075 35.9588 21.535 38.88 20.7887C41.2313 20.1887 46.17 19.45 52.995 22.4237C61.8675 26.2975 65.7038 34.0037 66.3375 42.0775C66.9375 49.735 64.0125 55.4425 64.0125 55.4425C64.0125 55.4425 63.8138 49.7275 60.9488 46.5812C58.8563 44.2862 56.1713 43.4237 53.2575 43.9787C48.3975 44.9087 46.2788 41.395 48.615 38.8562C50.145 37.195 52.1063 36.6775 54.135 36.61C57.6413 36.4975 59.5275 37.6712 59.6288 37.2737C59.7788 36.67 57.8775 35.2712 55.4663 34.2662C52.2938 32.9462 48.465 33.85 47.865 31.195C47.5725 29.9012 48.3038 29.1925 50.3963 29.0387C53.04 28.8475 54.6788 29.7025 54.6938 29.6125V29.6125Z" fill="white"/>
<defs>
<filter id="filter0_dd_154_32" x="0" y="0" width="87" height="89" filterUnits="userSpaceOnUse" color-interpolation-filters="sRGB">
<feFlood flood-opacity="0" result="BackgroundImageFix"/>
<feColorMatrix in="SourceAlpha" type="matrix" values="0 0 0 0 0 0 0 0 0 0 0 0 0 0 0 0 0 0 127 0" result="hardAlpha"/>
<feOffset dx="3" dy="5"/>
<feGaussianBlur stdDeviation="3"/>
<feComposite in2="hardAlpha" operator="out"/>
<feColorMatrix type="matrix" values="0 0 0 0 0.00206602 0 0 0 0 0.185158 0 0 0 0 0.354167 0 0 0 1 0"/>
<feBlend mode="normal" in2="BackgroundImageFix" result="effect1_dropShadow_154_32"/>
<feColorMatrix in="SourceAlpha" type="matrix" values="0 0 0 0 0 0 0 0 0 0 0 0 0 0 0 0 0 0 127 0" result="hardAlpha"/>
<feOffset dx="-2" dy="-2"/>
<feGaussianBlur stdDeviation="3"/>
<feComposite in2="hardAlpha" operator="out"/>
<feColorMatrix type="matrix" values="0 0 0 0 0 0 0 0 0 0.88 0 0 0 0 1 0 0 0 1 0"/>
<feBlend mode="normal" in2="effect1_dropShadow_154_32" result="effect2_dropShadow_154_32"/>
<feBlend mode="normal" in="SourceGraphic" in2="effect2_dropShadow_154_32" result="shape"/>
</filter>
<radialGradient id="paint0_radial_154_32" cx="0" cy="0" r="1" gradientUnits="userSpaceOnUse" gradientTransform="translate(43 43) rotate(90) scale(35)">
<stop stop-color="#0066C4"/>
<stop offset="1" stop-color="#00E0FF"/>
</radialGradient>
</defs>
</svg>
