<svg width="157" height="145" viewBox="0 0 157 145" fill="none" xmlns="http://www.w3.org/2000/svg">
<path d="M73.9257 16.3678C77.1421 14.8669 80.8579 14.8669 84.0743 16.3678L135.294 40.2683C139.519 42.2398 142.22 46.4802 142.22 51.1426V94.8574C142.22 99.5198 139.519 103.76 135.294 105.732L84.0743 129.632C80.8579 131.133 77.1421 131.133 73.9257 129.632L22.7059 105.732C18.4808 103.76 15.7801 99.5198 15.7801 94.8574V51.1426C15.7801 46.4802 18.4808 42.2398 22.7059 40.2683L73.9257 16.3678Z" fill="url(#paint0_radial_104_53)"/>
<path d="M83.44 17.7271L134.66 41.6276C138.357 43.3527 140.72 47.063 140.72 51.1426V94.8574C140.72 98.937 138.357 102.647 134.66 104.372L83.44 128.273C80.6257 129.586 77.3744 129.586 74.56 128.273L23.3402 104.372C19.6432 102.647 17.2801 98.937 17.2801 94.8574V51.1426C17.2801 47.063 19.6432 43.3527 23.3402 41.6276L74.56 17.7271C77.3744 16.4138 80.6256 16.4138 83.44 17.7271Z" stroke="white" stroke-opacity="0.7" stroke-width="3"/>
<defs>
<radialGradient id="paint0_radial_104_53" cx="0" cy="0" r="1" gradientUnits="userSpaceOnUse" gradientTransform="translate(79 73) rotate(90) scale(59 73)">
<stop offset="0.0001" stop-color="#32012A"/>
<stop offset="1" stop-color="#FF00E5" class="gradientColor"/>
</radialGradient>
</defs>
</svg>
