<?xml version="1.0" standalone="no"?>
<!DOCTYPE svg PUBLIC "-//W3C//DTD SVG 20010904//EN"
 "http://www.w3.org/TR/2001/REC-SVG-20010904/DTD/svg10.dtd">
<svg version="1.0" xmlns="http://www.w3.org/2000/svg"
 width="400.000000pt" height="400.000000pt" viewBox="0 0 400.000000 400.000000"
 preserveAspectRatio="xMidYMid meet">
<metadata>
Created by potrace 1.14, written by Peter Selinger 2001-2017
</metadata>
<g transform="translate(0.000000,400.000000) scale(0.100000,-0.100000)"
fill="#000000" stroke="none">
<path d="M95 3984 c-16 -8 -38 -23 -48 -32 -49 -44 -47 45 -47 -1963 l0 -1878
33 -43 c19 -25 47 -48 67 -55 27 -9 483 -12 1903 -12 2063 -1 1909 -6 1963 65
l29 37 3 1881 c2 1421 -1 1888 -9 1911 -18 45 -58 84 -98 95 -23 6 -703 10
-1901 10 -1672 0 -1868 -2 -1895 -16z"/>
</g>
</svg>
